<?xml version="1.0" encoding="utf-8"?><svg viewBox="0 0 200 48" xmlns="http://www.w3.org/2000/svg" xmlns:xlink="http://www.w3.org/1999/xlink"><style>:root>svg{display:none}:root>svg:target{display:block}</style><svg fill="none" viewBox="0 0 120 28" id="logo-fig-1" xmlns="http://www.w3.org/2000/svg"><path fill-rule="evenodd" clip-rule="evenodd" d="M71.35 7.382a1.53 1.53 0 0 0-.91 1.438v.02A1.46 1.46 0 0 0 72 10.31a1.53 1.53 0 1 0-.65-2.928Zm-33.48.688h-3V20.2h3V8.07Zm5.87 2.76c-2.84 0-4.68 1.79-4.68 4.79 0 3.05 1.8 4.8 4.68 4.8s4.68-1.8 4.68-4.8-1.84-4.79-4.68-4.79Zm1.67 4.79c0-1.65-.65-2.62-1.67-2.62s-1.66 1-1.66 2.62.63 2.6 1.66 2.6c1.03 0 1.67-.92 1.67-2.59v-.01Zm7.02 5.17h-2.88v.01c.17 1.66 1.82 2.85 4.47 2.85 2.85 0 4.78-1.36 4.78-3.55V11h-3v1.67a2.87 2.87 0 0 0-2.76-1.76c-2.3 0-3.68 1.81-3.68 4.68 0 2.87 1.45 4.54 3.64 4.54a2.84 2.84 0 0 0 2.73-1.64h.06v1.68c0 .9-.6 1.52-1.74 1.52a1.55 1.55 0 0 1-1.62-.9Zm3.37-5.18c0-1.46-.67-2.38-1.73-2.38s-1.71.91-1.71 2.38c0 1.47.64 2.3 1.71 2.3 1.07 0 1.73-.81 1.73-2.29v-.01Zm8.81-4.79c-2.84 0-4.68 1.79-4.68 4.79v.01c0 3.05 1.79 4.79 4.68 4.79 2.89 0 4.69-1.8 4.69-4.8s-1.85-4.79-4.69-4.79Zm1.67 4.79c0-1.65-.65-2.62-1.67-2.62S63 14 63 15.63c0 1.63.63 2.6 1.65 2.6s1.63-.93 1.63-2.6v-.02Zm4.16-4.59h3v9.18h-3v-9.18Zm10.28 9.3c2.28 0 3.61-1.71 3.61-4.71l.04.02c0-3-1.37-4.72-3.67-4.76a2.87 2.87 0 0 0-2.78 1.77h-.06V11h-3v12.14h3v-4.52h.06a2.86 2.86 0 0 0 2.8 1.7Zm.61-4.71c0-1.46-.67-2.39-1.72-2.39-1.05 0-1.72.94-1.73 2.39-.01 1.45.68 2.38 1.73 2.38 1.05 0 1.72-.91 1.72-2.36v-.02Zm12.22-1.73c-.07-1.89-1.58-3.07-4.07-3.07v.02c-2.48 0-4.09 1.17-4.11 2.97 0 1.4.94 2.35 2.73 2.72l1.73.37c.72.15 1 .25 1 .73s-.4.77-1.28.77-1.42-.4-1.51-1.08h-2.89c.13 1.87 1.8 3.09 4.35 3.09s4.28-1.22 4.28-3.12c0-1.39-.78-2.13-2.61-2.52l-1.92-.39c-.67-.14-1-.29-1-.76 0-.47.37-.79 1.2-.79s1.37.41 1.37 1.06h2.73Zm10.24 6.3h-2.89v-1.71h-.06a2.61 2.61 0 0 1-2.66 1.91 3.19 3.19 0 0 1-3.36-3.45V11h3v5.24c0 1.09.56 1.67 1.49 1.67a1.532 1.532 0 0 0 1.52-1.73V11h3l-.04 9.18Zm4.35-9.18h-2.9l-.05 9.2h3v-5.41a1.34 1.34 0 0 1 1.33-1.5c.82 0 1.27.5 1.27 1.42v5.49h2.85v-5.43a1.311 1.311 0 0 1 1.31-1.48c.84 0 1.29.46 1.29 1.46v5.45h3v-6.25a2.907 2.907 0 0 0-3-3.12 2.82 2.82 0 0 0-2.82 2h-.06a2.39 2.39 0 0 0-2.55-2 2.66 2.66 0 0 0-2.61 1.94h-.06V11ZM24.48 5.4a13.251 13.251 0 0 1 2 3.22A13.39 13.39 0 0 1 27.6 14c-.006 7.473-6.057 13.534-13.53 13.55-1.739 0-3.461-.34-5.07-1a13.09 13.09 0 0 1-3.2-1.83A13.53 13.53 0 1 1 24.48 5.4Zm-5.9-1.21a10.71 10.71 0 0 0-4.52-1l.01-.02A10.8 10.8 0 0 0 4.3 18.59a2.91 2.91 0 0 0 .79-1.74A5.73 5.73 0 0 1 9.94 12a3 3 0 0 0 2.71-2.65A5.73 5.73 0 0 1 17.5 4.5a4.39 4.39 0 0 0 1.08-.31ZM5.79 21l.12-.108a5.48 5.48 0 0 0 1.86-3.452 2.92 2.92 0 0 1 .87-1.82 2.83 2.83 0 0 1 1.81-.86 5.73 5.73 0 0 0 4.85-4.85A2.92 2.92 0 0 1 16.17 8 2.87 2.87 0 0 1 18 7.17a5.48 5.48 0 0 0 3-1.43 10.512 10.512 0 0 1 2.36 2.78.86.86 0 0 1-.13.14 2.87 2.87 0 0 1-1.81.88 5.71 5.71 0 0 0-4.85 4.85 3 3 0 0 1-2.69 2.68A5.76 5.76 0 0 0 9 21.92a3.14 3.14 0 0 1-.49 1.37A10.888 10.888 0 0 1 5.79 21Zm5.27 3.44c.975.28 1.985.421 3 .42v-.05a10.82 10.82 0 0 0 10.42-13.58 5.71 5.71 0 0 1-2.56 1 3 3 0 0 0-2.68 2.68 5.73 5.73 0 0 1-4.86 4.85 3 3 0 0 0-2.68 2.68c-.09.7-.306 1.378-.64 2Z" fill="#696871"/></svg><svg fill="none" viewBox="0 0 124 30" id="logo-fig-2" xmlns="http://www.w3.org/2000/svg"><path d="M26.73 10.71c.36 0 .48.13.48.48v7.92h4.07c.35 0 .48.13.48.48v.7c0 .35-.13.48-.48.48h-5.36c-.35 0-.49-.13-.49-.48v-9.1c0-.35.14-.48.49-.48h.81Z" fill="#696871"/><path fill-rule="evenodd" clip-rule="evenodd" d="M39.31 10.5c-2.54 0-4 1.39-4 3.7v3.08c0 2.31 1.47 3.7 4 3.7 2.53 0 4-1.39 4-3.7V14.2c0-2.31-1.46-3.7-4-3.7Zm.05 1.7c1.46 0 2.27.7 2.27 2v3.1c0 1.28-.81 2-2.27 2s-2.26-.69-2.26-2v-3.1c0-1.29.8-2 2.26-2Z" fill="#696871"/><path d="M55.22 15.26c.39 0 .48.13.48.48v1.9A3 3 0 0 1 54.64 20a4.36 4.36 0 0 1-3 .94c-2.59 0-4-1.39-4-3.7v-3.1c0-2.28 1.46-3.68 4-3.68 2 0 3.3.79 3.85 2.37a.43.43 0 0 1-.3.62l-.78.27c-.34.12-.48.05-.6-.3a2.06 2.06 0 0 0-2.17-1.3c-1.47 0-2.27.71-2.27 2v3.18c0 1.31.81 2 2.27 2S54 18.63 54 17.65v-.74h-2.17c-.36 0-.49-.14-.49-.49v-.68c0-.35.13-.48.49-.48h3.39Z" fill="#696871"/><path fill-rule="evenodd" clip-rule="evenodd" d="M63.83 10.5c-2.54 0-4 1.39-4 3.7v3.08c0 2.31 1.47 3.7 4 3.7 2.53 0 4-1.39 4-3.7V14.2c0-2.31-1.46-3.7-4-3.7Zm.05 1.7c1.45 0 2.26.7 2.26 2v3.1c0 1.28-.8 2-2.26 2-1.46 0-2.27-.69-2.27-2v-3.1c0-1.29.82-2 2.27-2Z" fill="#696871"/><path d="M72.54 11c0-.22.07-.29.29-.29h.46c.22 0 .27.07.27.29v9.48c0 .22 0 .29-.27.29h-.46c-.22 0-.29-.07-.29-.29V11Z" fill="#696871"/><path fill-rule="evenodd" clip-rule="evenodd" d="M85.81 13.85a3.14 3.14 0 0 0-3.14-3.14h-3.73c-.21 0-.29.07-.29.29v9.48c0 .22.08.29.29.29h.47c.21 0 .26-.07.26-.29v-3.49h3a3.14 3.14 0 0 0 3.14-3.14Zm-1.342 1.06A2.18 2.18 0 0 1 82.58 16h-3v-4.36h3a2.18 2.18 0 0 1 1.888 3.27Z" fill="#696871"/><path d="M93.62 10.51a3.61 3.61 0 0 1 3.72 2.18c.08.16 0 .29-.16.37l-.44.2c-.18.07-.25.06-.36-.13a2.72 2.72 0 0 0-2.76-1.64c-1.69 0-2.61.67-2.61 1.87a1.52 1.52 0 0 0 1.27 1.54 6.79 6.79 0 0 0 1.66.32 6.882 6.882 0 0 1 2 .41A2.25 2.25 0 0 1 97.5 18c0 1.87-1.36 3-3.86 3a3.61 3.61 0 0 1-3.83-2.43.27.27 0 0 1 .17-.38l.44-.16a.27.27 0 0 1 .36.17 2.86 2.86 0 0 0 2.86 1.8c1.89 0 2.82-.66 2.82-2a1.49 1.49 0 0 0-1.17-1.53 7.003 7.003 0 0 0-1.59-.28l-1.08-.14a9.494 9.494 0 0 1-1-.27 2.629 2.629 0 0 1-.89-.47 2.44 2.44 0 0 1-.8-1.91c.07-1.75 1.38-2.89 3.69-2.89ZM102.89 17.35a2.78 2.78 0 0 0 5.55 0V11c0-.22.07-.29.29-.29h.46c.22 0 .29.07.29.29v6.34c0 2.27-1.34 3.64-3.81 3.64-2.47 0-3.81-1.37-3.81-3.64V11c0-.22.07-.29.28-.29h.47c.21 0 .28.07.28.29v6.35ZM123.28 10.71c.22 0 .29.07.29.29v9.48c0 .22-.07.29-.29.29h-.42c-.21 0-.28-.07-.28-.29v-5.77c0-.84.057-1.678.17-2.51h-.06c-.312.76-.677 1.5-1.09 2.21l-2.15 3.79a.35.35 0 0 1-.33.22h-.28a.37.37 0 0 1-.34-.22l-2.18-3.83a16.15 16.15 0 0 1-1-2.18h-.06c.102.84.156 1.684.16 2.53v5.76c0 .22-.07.29-.29.29h-.39c-.22 0-.29-.07-.29-.29V11c0-.22.07-.29.29-.29h.36a.4.4 0 0 1 .4.23l3.5 6.22 3.48-6.16c.11-.21.17-.24.39-.24l.41-.05Z" fill="#696871"/><path fill-rule="evenodd" clip-rule="evenodd" d="M2.31 1.69V22a.94.94 0 0 1-.94.94h-.22A.94.94 0 0 1 .21 22V1.69a.94.94 0 0 1 .94-.93h.22a.94.94 0 0 1 .94.93Zm11.53 12.875a1 1 0 0 1 .74-.275l-.05.02a1 1 0 0 1 1.1 1.05v5.5a1.05 1.05 0 1 1-2.1 0v-5.57a1 1 0 0 1 .31-.725Zm3 2.895a1 1 0 0 1 1-1 1 1 0 0 1 1.09 1.05v1.21a1.045 1.045 0 1 1-2.09 0v-1.26Zm-7.9 8.32v-7.23a1.72 1.72 0 0 1-1.09.35 1.77 1.77 0 0 1-1-.34v7.22a1.045 1.045 0 0 0 2.09 0Zm-4.36-4.49a1.8 1.8 0 0 1-1-.34v7.25a1.05 1.05 0 1 0 2.1 0V21a1.83 1.83 0 0 1-1.1.29Zm6.68-4.86a1.83 1.83 0 0 1-1.05-.34v7.27a1.05 1.05 0 1 0 2.1 0V16.1a1.77 1.77 0 0 1-1.1.35l.05-.02Zm-6.57 4.09h-.22a.94.94 0 0 1-.94-.94V4.11a.94.94 0 0 1 .94-.93h.22a.94.94 0 0 1 .94.93V19.6c0 .52-.42.94-.94.94v-.02Zm3.08-2.38H8a.93.93 0 0 0 .93-.93V6.51A.94.94 0 0 0 8 5.57h-.23a.93.93 0 0 0-.93.94v10.7c0 .514.416.93.93.93Zm3.54-2.45h-.21a.94.94 0 0 1-.94-.93V9a.94.94 0 0 1 .94-1h.22c.52 0 .94.42.94.94v5.8a.94.94 0 0 1-.94.95h-.01Zm3.1-2.15h.23a.94.94 0 0 0 .93-.94v-1.49a.94.94 0 0 0-.94-.93h-.22a.94.94 0 0 0-.94.93v1.49c0 .52.42.94.94.94Z" fill="#696871"/></svg><svg fill="none" viewBox="0 0 101 48" id="logo-fig-3" xmlns="http://www.w3.org/2000/svg"><path d="M.79 28.79h3V43.5h-3V28.79Z" fill="#696871"/><path fill-rule="evenodd" clip-rule="evenodd" d="M8.82 33.52a5.34 5.34 0 0 0-3.29 4.94 5.28 5.28 0 0 0 5.34 5.33 5.34 5.34 0 1 0-2.05-10.27Zm2.011 2.68a2.32 2.32 0 0 1 2.359 2.26 2.26 2.26 0 0 1-2.32 2.38 2.32 2.32 0 0 1-.039-4.64ZM28.27 43v-9.58l-2.95.03v1a3.59 3.59 0 0 0-2.94-1.31 5.12 5.12 0 1 0 0 10.24 3.56 3.56 0 0 0 2.94-1.31V43A2 2 0 0 1 23 45.16a2.3 2.3 0 0 1-2.25-1.27l-2.58 1.49a5.15 5.15 0 0 0 4.77 2.44c2.68 0 5.33-1.43 5.33-4.82Zm-4.385-7.064a2.44 2.44 0 0 1 1.435 2.324 2.28 2.28 0 0 1-2.44 2.34 2.44 2.44 0 1 1 1.005-4.664ZM33.29 33.52A5.34 5.34 0 0 0 30 38.46a5.28 5.28 0 0 0 5.34 5.33 5.34 5.34 0 1 0-2.05-10.27ZM35.3 36.2a2.32 2.32 0 0 1 2.36 2.26h-.02a2.26 2.26 0 0 1-2.3 2.38 2.32 2.32 0 0 1-.04-4.64ZM43.89 28.9a1.82 1.82 0 0 0-1.82 1.82 1.83 1.83 0 0 0 1.82 1.82 1.82 1.82 0 0 0 0-3.64Zm1.49 4.52h-3V43.5h3V33.42ZM57.164 42.126a5.06 5.06 0 0 0 1.296-3.666 5.06 5.06 0 0 0-4.81-5.32 3.83 3.83 0 0 0-3 1.23v-.95h-3v14.14h3v-5a3.83 3.83 0 0 0 3 1.23 5.06 5.06 0 0 0 3.514-1.664Zm-4.123-6.005a2.4 2.4 0 0 1 2.419 2.339h-.02A2.3 2.3 0 0 1 53 40.92a2.4 2.4 0 0 1 .04-4.8Z" fill="#696871"/><path d="M67.8 40.48c0 2.32-2 3.31-4.2 3.31a4.42 4.42 0 0 1-4.33-2.4l2.62-1.49a1.66 1.66 0 0 0 1.71 1.19c.73 0 1.09-.23 1.09-.63 0-1.11-5-.52-5-4 0-2.2 1.86-3.31 4-3.31a4.43 4.43 0 0 1 3.94 2.16L65 36.69a1.49 1.49 0 0 0-1.36-.89c-.52 0-.84.2-.84.57.04 1.15 5 .38 5 4.11ZM78.84 33.42V43.5h-3v-.94a3.45 3.45 0 0 1-2.88 1.23c-2 0-3.77-1.45-3.77-4.18v-6.19h3v5.75A1.66 1.66 0 0 0 74 41c1.1 0 1.87-.64 1.87-2.07v-5.51h2.97ZM96.18 37.32v6.18h-3v-5.92c0-1-.49-1.66-1.45-1.66s-1.58.71-1.58 1.9v5.68h-3v-5.92c0-1-.48-1.66-1.45-1.66s-1.57.71-1.57 1.9v5.68h-3V33.42h3v.93a3.1 3.1 0 0 1 2.7-1.21 3 3 0 0 1 2.64 1.33 3.32 3.32 0 0 1 2.92-1.33c2.28 0 3.79 1.66 3.79 4.18ZM98.74 33.36a2.24 2.24 0 1 0 0-4.48 2.24 2.24 0 0 0 0 4.48ZM34.74 21.16c5.793 0 10.49-4.697 10.49-10.49S40.533.18 34.74.18 24.25 4.877 24.25 10.67s4.697 10.49 10.49 10.49ZM58.19 21.16c5.794 0 10.49-4.697 10.49-10.49S63.983.18 58.19.18 47.7 4.877 47.7 10.67s4.697 10.49 10.49 10.49ZM.81.18h20.97v20.97H.81z" fill="#696871"/></svg><svg fill="none" viewBox="0 0 118 24" id="logo-fig-4" xmlns="http://www.w3.org/2000/svg"><path d="M37.88 19.39a2.65 2.65 0 0 1-1.67-.48 1.56 1.56 0 0 1-.63-1.31V8.33a.26.26 0 0 1 .29-.29h1.68c.19 0 .28.1.28.29v8.55c0 .38.17.57.52.57.148.006.297-.01.44-.05.2 0 .31.06.32.24l.15 1.25a.26.26 0 0 1-.24.31 3.77 3.77 0 0 1-1.14.19Z" fill="#696871"/><path fill-rule="evenodd" clip-rule="evenodd" d="M41.33 18.32a4.71 4.71 0 0 0 6 0v-.01a4.06 4.06 0 0 0 0-5.62 4.73 4.73 0 0 0-6 0 4 4 0 0 0 0 5.63ZM45.77 17a2.13 2.13 0 0 1-2.86 0 2.24 2.24 0 0 1 0-2.94 2.13 2.13 0 0 1 2.86 0 2.24 2.24 0 0 1 0 2.94ZM57.99 12.16c0-.19-.09-.29-.28-.29l-1.66.01a.26.26 0 0 0-.28.29v.16a3.36 3.36 0 0 0-2.13-.69 3.91 3.91 0 0 0-2.84 1.08 4 4 0 0 0 0 5.56 3.88 3.88 0 0 0 2.84 1.09 3.35 3.35 0 0 0 2.08-.65v.63a1.7 1.7 0 0 1-.47 1.25 1.77 1.77 0 0 1-1.29.46 2.34 2.34 0 0 1-1.12-.26 1.31 1.31 0 0 1-.61-.71.37.37 0 0 0-.33-.23h-1.68c-.27 0-.27.09-.27.29a3 3 0 0 0 1.31 2 4.68 4.68 0 0 0 2.71.75 4.2 4.2 0 0 0 2.91-1 3.26 3.26 0 0 0 1.11-2.57v-7.17ZM55.2 17a1.76 1.76 0 0 1-1.37.59 1.81 1.81 0 0 1-1.39-.59 2.16 2.16 0 0 1-.53-1.49 2.12 2.12 0 0 1 .54-1.5 1.8 1.8 0 0 1 1.39-.59 1.75 1.75 0 0 1 1.36.58 2.45 2.45 0 0 1 0 3ZM60.62 18.32a4.73 4.73 0 0 0 6 0v-.01a4.06 4.06 0 0 0 0-5.62 4.74 4.74 0 0 0-6 0 4.07 4.07 0 0 0 0 5.63Zm3.01-.77a2 2 0 0 1-1.44-.55 2.27 2.27 0 0 1 0-2.94 2 2 0 0 1 1.44-.55 2 2 0 0 1 1.43.55 2.27 2.27 0 0 1 0 2.94 2 2 0 0 1-1.43.55ZM69.45 10.17a1.45 1.45 0 0 0 1.91 0 1.21 1.21 0 0 0 0-1.76 1.48 1.48 0 0 0-1.91 0 1.21 1.21 0 0 0 0 1.76Zm.45 8.74a2.69 2.69 0 0 0 1.67.48c.39-.004.779-.068 1.15-.19a.26.26 0 0 0 .24-.31l-.15-1.25c-.01-.18-.12-.24-.32-.24a1.549 1.549 0 0 1-.45.05c-.34 0-.51-.19-.51-.57v-4.72c0-.19-.09-.29-.28-.29h-1.68a.26.26 0 0 0-.29.29v5.44c-.018.511.213 1 .62 1.31ZM82 12.71a3.92 3.92 0 0 0-2.86-1.08 3.37 3.37 0 0 0-2.47 1 1.85 1.85 0 0 0-1.81-1 3.002 3.002 0 0 0-1.08.18.32.32 0 0 0-.23.33v1.18c0 .16.11.24.33.24h.33a.52.52 0 0 1 .59.59v8.2a.24.24 0 0 0 .28.28h1.68c.19 0 .29-.09.29-.28v-3.61a3.44 3.44 0 0 0 2.09.65A3.89 3.89 0 0 0 82 18.3a4.1 4.1 0 0 0 0-5.59Zm-3.04 4.88a1.91 1.91 0 0 1-1.38-.59 2.24 2.24 0 0 1-.53-1.53 2.21 2.21 0 0 1 .53-1.53 1.91 1.91 0 0 1 2.76 0c.378.417.576.967.55 1.53a2.16 2.16 0 0 1-.55 1.53 1.91 1.91 0 0 1-1.38.59Z" fill="#696871"/><path d="M87.82 19.39a4.82 4.82 0 0 1-2.57-.62A2.44 2.44 0 0 1 84.09 17c0-.2.07-.3.29-.3h1.47a.38.38 0 0 1 .33.22c.21.54.76.81 1.64.81a1.87 1.87 0 0 0 .89-.18.58.58 0 0 0 .34-.49c0-.26-.16-.44-.48-.56a5.412 5.412 0 0 0-1.17-.25c-.472-.053-.94-.137-1.4-.25a2.3 2.3 0 0 1-1.17-.67 2.14 2.14 0 0 1 .43-3.1 4.12 4.12 0 0 1 2.42-.64 4.42 4.42 0 0 1 2.36.59 2.23 2.23 0 0 1 1.1 1.57c0 .2-.09.3-.27.3h-1.48a.31.31 0 0 1-.3-.18 1 1 0 0 0-.52-.53 1.76 1.76 0 0 0-.86-.2 1.74 1.74 0 0 0-.85.17.5.5 0 0 0-.32.46.64.64 0 0 0 .48.59 5.42 5.42 0 0 0 1.19.3c.468.062.932.148 1.39.26a2.3 2.3 0 0 1 1.17.67c.34.373.516.866.49 1.37a2 2 0 0 1-.93 1.74 4.37 4.37 0 0 1-2.51.69ZM101.83 18.89a.27.27 0 0 1-.23.31 3.86 3.86 0 0 1-1.13.19 2.22 2.22 0 0 1-2-.87 3.62 3.62 0 0 1-2.55.87 3.1 3.1 0 0 1-2.34-.91 3.28 3.28 0 0 1-.89-2.41v-3.91c0-.19.09-.29.28-.29h1.68c.19 0 .28.1.28.29v3.61c-.018.45.135.89.43 1.23a1.5 1.5 0 0 0 1.15.47c.443.02.875-.14 1.2-.44a1.6 1.6 0 0 0 .45-1.19v-3.68c0-.19.09-.29.28-.29h1.7c.19 0 .28.1.28.29v4.71c0 .39.17.58.5.58.155.006.31-.01.46-.05a.26.26 0 0 1 .33.24l.12 1.25ZM117.72 18.89a.249.249 0 0 1-.23.31c-.372.12-.759.185-1.15.19a2.67 2.67 0 0 1-1.67-.48 1.56 1.56 0 0 1-.67-1.31v-2.35a1.77 1.77 0 0 0-.42-1.23 1.42 1.42 0 0 0-1.12-.47 1.25 1.25 0 0 0-1 .44 1.779 1.779 0 0 0-.38 1.18v3.69c0 .19-.09.29-.28.29h-1.69a.26.26 0 0 1-.29-.29v-3.61a1.851 1.851 0 0 0-.39-1.23 1.3 1.3 0 0 0-1-.47 1.45 1.45 0 0 0-1.1.44 1.651 1.651 0 0 0-.41 1.18v3.69a.261.261 0 0 1-.29.29H104c-.19 0-.28-.1-.28-.29v-4.71a.52.52 0 0 0-.59-.59h-.33c-.22 0-.33-.08-.33-.24v-1.18a.32.32 0 0 1 .23-.33 3.002 3.002 0 0 1 1.08-.18 1.88 1.88 0 0 1 1.78.92 3.38 3.38 0 0 1 2.54-.92 2.87 2.87 0 0 1 2.37 1.06 3.3 3.3 0 0 1 2.62-1.06 3.16 3.16 0 0 1 2.37.91 3.26 3.26 0 0 1 .89 2.41v1.93c0 .38.17.57.49.57a1.5 1.5 0 0 0 .46-.05c.207 0 .317.08.33.24l.09 1.25Z" fill="#696871"/><path fill-rule="evenodd" clip-rule="evenodd" d="M.46 10.57a13.69 13.69 0 0 1 26.57 0h-1.2a9.69 9.69 0 0 0-5.67 1.73c-.096.07-.196.133-.3.19h-.14a2.856 2.856 0 0 1-.3-.19 10.17 10.17 0 0 0-11.35 0c-.096.07-.196.133-.3.19h-.14a2.847 2.847 0 0 1-.3-.19 9.69 9.69 0 0 0-5.67-1.73H.46Zm23.21 6.27a3.37 3.37 0 0 1 2.16-.71h1.61v-3.21h-1.61A6.38 6.38 0 0 0 22 14.14a3.64 3.64 0 0 1-4.32 0 6.8 6.8 0 0 0-7.77 0 3.64 3.64 0 0 1-4.32 0 6.38 6.38 0 0 0-3.88-1.22H.05v3.21h1.61a3.37 3.37 0 0 1 2.16.71 6.78 6.78 0 0 0 7.76 0 3.39 3.39 0 0 1 2.16-.71 3.35 3.35 0 0 1 2.16.71 6.8 6.8 0 0 0 7.77 0Zm2.16 5.03a3.37 3.37 0 0 0-2.16.71 6.8 6.8 0 0 1-7.77 0 3.35 3.35 0 0 0-2.16-.71 3.39 3.39 0 0 0-2.16.71 6.78 6.78 0 0 1-7.76 0 3.37 3.37 0 0 0-2.16-.71H.05v-3.21h1.66a6.38 6.38 0 0 1 3.88 1.22 3.64 3.64 0 0 0 4.32 0 6.8 6.8 0 0 1 7.77 0 3.64 3.64 0 0 0 4.32 0 6.38 6.38 0 0 1 3.83-1.22h1.61v3.21h-1.61Z" fill="#696871"/></svg><svg fill="none" viewBox="0 0 128 30" id="logo-fig-5" xmlns="http://www.w3.org/2000/svg"><path fill-rule="evenodd" clip-rule="evenodd" d="M75.712 8.516a1.64 1.64 0 0 0-.962 1.564l.02.01a1.58 1.58 0 0 0 1.62 1.56 1.64 1.64 0 1 0-.678-3.134ZM39.72 9.26h-3.21v13h3.21v-13ZM46 12.22c-3 0-5 1.93-5 5.15 0 3.29 1.93 5.17 5 5.17 3.07 0 5-1.95 5-5.17 0-3.22-2-5.15-5-5.15Zm1.82 5.15c0-1.77-.69-2.81-1.79-2.81s-1.78 1-1.78 2.81.68 2.8 1.78 2.8 1.81-.99 1.81-2.79l-.02-.01Zm7.56 5.56h-3.1l.02.01c.18 1.79 1.96 3.06 4.74 3.07 3.06 0 5.14-1.47 5.14-3.82v-9.74H59v1.613a3.07 3.07 0 0 0-2.91-1.693c-2.51 0-4 1.92-4 5s1.56 4.87 3.91 4.87a3.07 3.07 0 0 0 2.99-1.73v1.78c0 .98-.64 1.64-1.87 1.64a1.66 1.66 0 0 1-1.74-1ZM59 17.37c0-1.57-.72-2.56-1.86-2.56-1.14 0-1.84 1-1.84 2.56s.69 2.48 1.84 2.48c1.15 0 1.86-.85 1.86-2.48Zm9.45-5.15c-3 0-5 1.93-5 5.15h.02c0 3.29 1.92 5.17 4.98 5.17 3.06 0 5-1.95 5-5.17 0-3.22-2-5.15-5-5.15Zm1.82 5.15c0-1.77-.7-2.81-1.79-2.81s-1.78 1-1.78 2.81.68 2.8 1.78 2.8 1.81-.99 1.81-2.79l-.02-.01Zm4.48-4.93H78v9.86h-3.2l-.05-9.86Zm11.05 10c2.45 0 3.89-1.86 3.89-5.07l.06.01c0-3.22-1.45-5.07-3.97-5.05a3.09 3.09 0 0 0-3 1.9h-.06v-1.76h-3.19v13h3.21v-4.86h.06a3.07 3.07 0 0 0 3 1.83Zm.62-5.07c0-1.56-.73-2.57-1.86-2.57-1.13 0-1.84 1-1.85 2.57-.01 1.57.72 2.56 1.85 2.56 1.13 0 1.92-.93 1.92-2.55l-.06-.01Zm13.13-1.85c-.02-2.04-1.69-3.31-4.38-3.31l.06.01c-2.71 0-4.39 1.25-4.45 3.21 0 1.51 1.01 2.52 2.94 2.93l1.86.39c.77.16 1.07.25 1.07.78s-.44.83-1.38.83-1.52-.43-1.61-1.16h-3.11c.13 2.01 1.92 3.33 4.67 3.33s4.6-1.36 4.6-3.36c0-1.49-.8-2.29-2.8-2.71l-2.06-.42c-.74-.15-1.11-.31-1.11-.82s.42-.85 1.3-.85c.88 0 1.47.44 1.47 1.15h2.93Zm11.02 6.77h-3.11v-1.85h-.06a2.82 2.82 0 0 1-2.87 2.05 3.428 3.428 0 0 1-3.53-3.71v-6.33h3.21v5.64c0 1.16.61 1.79 1.61 1.79a1.638 1.638 0 0 0 1.61-1.88v-5.55h3.2l-.06 9.84Zm4.67-9.85h-3.12l.02 9.86h3.21v-5.82a1.43 1.43 0 0 1 1.43-1.61c.88 0 1.37.53 1.37 1.53v5.9h3.06v-5.84a1.402 1.402 0 0 1 1.41-1.59c.91 0 1.38.56 1.38 1.56v5.87h3.23v-6.69a3.123 3.123 0 0 0-3.23-3.35 3 3 0 0 0-3 2.09h-.14a2.56 2.56 0 0 0-2.74-2.09 2.86 2.86 0 0 0-2.81 2.08h-.07v-1.9ZM30.16 10.11A9.88 9.88 0 0 0 13 3.43H.52v26.34h26.35V17.46a9.87 9.87 0 0 0 3.29-7.35Zm-5.07 0a4.82 4.82 0 1 1-9.64.02 4.82 4.82 0 0 1 9.64-.02ZM5.59 24.7H21.8v-4.83a9.67 9.67 0 0 1-1.53.13c-5.46-.006-9.884-4.43-9.89-9.89.004-.54.055-1.079.15-1.61H5.59v16.2Z" fill="#696871"/></svg><svg fill="none" viewBox="0 0 200 41" id="logo-head" xmlns="http://www.w3.org/2000/svg"><path d="M30.028 18.193A5.376 5.376 0 0 0 28.49 22.5l-.027-.026a6.388 6.388 0 0 1-6.903 6.902l.027.027a5.409 5.409 0 1 0 4.884 4.88l.027.026a6.388 6.388 0 0 1 6.903-6.903l-.028-.027a5.398 5.398 0 1 0-3.34-9.186h-.005Z" fill="#5454D4"/><path d="m19.18 25.935-.029-.026A5.34 5.34 0 0 0 25 20.065l.028.026a6.388 6.388 0 0 1 6.903-6.903l-.028-.026a5.409 5.409 0 1 0-4.88-4.88l-.026-.028a6.387 6.387 0 0 1-6.903 6.903l.027.028a5.34 5.34 0 0 0-5.849 5.844l-.026-.026a6.39 6.39 0 0 1-6.903 6.903l.026.026a5.409 5.409 0 1 0 4.88 4.88l.027.026a6.388 6.388 0 0 1 6.903-6.903Z" fill="#FF7143"/><path d="M9.324 22.984a5.37 5.37 0 0 0 1.536-4.308l.028.027a6.388 6.388 0 0 1 6.906-6.903l-.028-.027a5.407 5.407 0 1 0-4.88-4.879l-.026-.026a6.388 6.388 0 0 1-6.903 6.903l.027.026a5.398 5.398 0 1 0 3.342 9.187h-.002Z" fill="#5454D4"/><path d="M54.878 8.316h4.368v21.255h-4.368V8.316Z" fill="#19191B"/><path fill-rule="evenodd" clip-rule="evenodd" d="M66.461 15.142a7.716 7.716 0 0 0-4.742 7.15 7.63 7.63 0 0 0 7.716 7.686 7.716 7.716 0 1 0-2.974-14.836Zm2.912 3.894a3.35 3.35 0 0 1 3.41 3.257 3.266 3.266 0 0 1-3.348 3.442 3.35 3.35 0 0 1-.062-6.7ZM94.559 28.837V15.013l-4.252-.003v1.486a5.171 5.171 0 0 0-4.251-1.893 7.399 7.399 0 0 0 0 14.79 5.17 5.17 0 0 0 4.251-1.893v1.33a2.902 2.902 0 0 1-3.29 3.116 3.327 3.327 0 0 1-3.319-1.834l-3.726 2.154a7.444 7.444 0 0 0 6.9 3.53c3.872 0 7.687-2.068 7.687-6.96Zm-6.326-10.201A3.53 3.53 0 0 1 90.31 22a3.294 3.294 0 0 1-3.522 3.382 3.53 3.53 0 1 1 1.446-6.746ZM101.774 15.142a7.717 7.717 0 0 0-4.742 7.15 7.63 7.63 0 0 0 7.717 7.686 7.715 7.715 0 1 0-2.975-14.836Zm2.912 3.894a3.35 3.35 0 0 1 3.411 3.257 3.265 3.265 0 0 1-3.348 3.442 3.35 3.35 0 0 1-.063-6.7ZM116.119 8.69a2.621 2.621 0 0 0-1.618 2.422 2.648 2.648 0 0 0 2.621 2.62 2.62 2.62 0 1 0-1.003-5.041Zm3.193 6.323h-4.369l-.006 14.56h4.375v-14.56ZM136.289 27.582a7.311 7.311 0 0 0 1.882-5.29 7.31 7.31 0 0 0-6.959-7.686 5.467 5.467 0 0 0-4.337 1.775v-1.368h-4.368v20.381h4.368v-7.192a5.463 5.463 0 0 0 4.337 1.776 7.309 7.309 0 0 0 5.077-2.396Zm-6.008-8.667a3.465 3.465 0 0 1 3.522 3.378 3.325 3.325 0 0 1-3.463 3.551 3.464 3.464 0 0 1-.059-6.929Z" fill="#19191B"/><path d="M151.649 25.203c0 3.349-2.911 4.775-6.055 4.775a6.375 6.375 0 0 1-6.26-3.465l3.784-2.154a2.392 2.392 0 0 0 2.47 1.717c1.047 0 1.572-.32 1.572-.901 0-1.603-7.163-.757-7.163-5.794 0-3.175 2.679-4.775 5.707-4.775a6.367 6.367 0 0 1 5.677 3.115l-3.727 2.008a2.112 2.112 0 0 0-1.95-1.28c-.757 0-1.223.294-1.223.814.006 1.66 7.168.553 7.168 5.94ZM167.603 15.013v14.56h-4.368v-1.37a4.973 4.973 0 0 1-4.161 1.776c-2.942 0-5.442-2.095-5.442-6.029v-8.937H158v8.297a2.4 2.4 0 0 0 2.532 2.647c1.602 0 2.708-.93 2.708-2.998v-7.941l4.363-.005ZM192.647 20.632v8.939h-4.368v-8.56c0-1.457-.698-2.387-2.095-2.387-1.456 0-2.272 1.019-2.272 2.736v8.21h-4.366v-8.56c0-1.456-.699-2.387-2.097-2.387-1.456 0-2.271 1.02-2.271 2.737v8.21h-4.368V15.013h4.368v1.338a4.47 4.47 0 0 1 3.901-1.746 4.332 4.332 0 0 1 3.814 1.921 4.796 4.796 0 0 1 4.222-1.92c3.342 0 5.532 2.388 5.532 6.027ZM196.341 14.924a3.241 3.241 0 1 0 0-6.483 3.241 3.241 0 0 0 0 6.482Z" fill="#19191B"/></svg></svg>